<svg xmlns="http://www.w3.org/2000/svg" width="512" height="512" viewBox="0 0 512 512">
<rect width="512" height="512" fill="#14213D"/>
<g transform="translate(76.80,125.67) scale(4.07273)"><path d="M 14.5 0 H 27.5 A 13 13 0 0 1 40.5 13 V 17 A 13 13 0 0 1 27.5 30 H 14.5 A 13 13 0 0 1 1.5 17 V 13 A 13 13 0 0 1 14.5 0 Z M 13 28 H 29 A 13 13 0 0 1 42 41 V 51 A 13 13 0 0 1 29 64 H 13 A 13 13 0 0 1 0 51 V 41 A 13 13 0 0 1 13 28 Z M 15 8.2 A 4.5 4.5 0 0 0 10.5 12.7 V 17.3 A 4.5 4.5 0 0 0 15 21.8 H 27 A 4.5 4.5 0 0 0 31.5 17.3 V 12.7 A 4.5 4.5 0 0 0 27 8.2 Z M 14.5 36.2 A 5.5 5.5 0 0 0 9 41.7 V 50.300000000000004 A 5.5 5.5 0 0 0 14.5 55.800000000000004 H 27.5 A 5.5 5.5 0 0 0 33 50.300000000000004 V 41.7 A 5.5 5.5 0 0 0 27.5 36.2 Z M 60.5 0 H 73.5 A 13 13 0 0 1 86.5 13 V 17 A 13 13 0 0 1 73.5 30 H 60.5 A 13 13 0 0 1 47.5 17 V 13 A 13 13 0 0 1 60.5 0 Z M 59 28 H 75 A 13 13 0 0 1 88 41 V 51 A 13 13 0 0 1 75 64 H 59 A 13 13 0 0 1 46 51 V 41 A 13 13 0 0 1 59 28 Z M 61 8.2 A 4.5 4.5 0 0 0 56.5 12.7 V 17.3 A 4.5 4.5 0 0 0 61 21.8 H 73 A 4.5 4.5 0 0 0 77.5 17.3 V 12.7 A 4.5 4.5 0 0 0 73 8.2 Z M 60.5 36.2 A 5.5 5.5 0 0 0 55 41.7 V 50.300000000000004 A 5.5 5.5 0 0 0 60.5 55.800000000000004 H 73.5 A 5.5 5.5 0 0 0 79 50.300000000000004 V 41.7 A 5.5 5.5 0 0 0 73.5 36.2 Z" fill="#FAFAF8"/></g>
</svg>
